<svg width="301" height="106" viewBox="0 0 301 106" fill="none" xmlns="http://www.w3.org/2000/svg">
<path d="M0.24 43L13.056 10.072H20.928L33.792 43H27.024L24.384 35.992H9.312L6.672 43H0.24ZM11.28 30.712H22.368L19.056 21.784C18.928 21.464 18.768 21.064 18.576 20.584C18.416 20.072 18.24 19.528 18.048 18.952C17.856 18.344 17.664 17.736 17.472 17.128C17.28 16.52 17.104 15.976 16.944 15.496H16.704C16.512 16.136 16.272 16.872 15.984 17.704C15.728 18.536 15.472 19.32 15.216 20.056C14.96 20.792 14.752 21.368 14.592 21.784L11.28 30.712ZM37.6793 43V10.072H43.9193V43H37.6793ZM73.1235 43.576C71.2995 43.576 69.5555 43.384 67.8915 43C66.2275 42.584 64.7555 41.96 63.4755 41.128C62.1955 40.264 61.1875 39.208 60.4515 37.96C59.7155 36.68 59.3475 35.176 59.3475 33.448C59.3475 33.256 59.3475 33.064 59.3475 32.872C59.3795 32.68 59.3955 32.536 59.3955 32.44H65.6835C65.6835 32.504 65.6675 32.632 65.6355 32.824C65.6355 32.984 65.6355 33.128 65.6355 33.256C65.6355 34.312 65.9395 35.224 66.5475 35.992C67.1555 36.728 68.0355 37.304 69.1875 37.72C70.3395 38.104 71.6995 38.296 73.2675 38.296C74.3235 38.296 75.2515 38.232 76.0515 38.104C76.8835 37.976 77.5875 37.8 78.1635 37.576C78.7715 37.32 79.2675 37.032 79.6515 36.712C80.0355 36.36 80.3075 35.976 80.4675 35.56C80.6595 35.144 80.7555 34.696 80.7555 34.216C80.7555 33.288 80.4675 32.52 79.8915 31.912C79.3155 31.304 78.5315 30.792 77.5395 30.376C76.5795 29.96 75.4755 29.592 74.2275 29.272C73.0115 28.92 71.7475 28.568 70.4355 28.216C69.1555 27.864 67.8915 27.448 66.6435 26.968C65.4275 26.456 64.3235 25.848 63.3315 25.144C62.3715 24.44 61.6035 23.56 61.0275 22.504C60.4515 21.416 60.1635 20.12 60.1635 18.616C60.1635 17.08 60.4835 15.736 61.1235 14.584C61.7955 13.432 62.7235 12.488 63.9075 11.752C65.1235 10.984 66.5315 10.424 68.1315 10.072C69.7315 9.688 71.4755 9.496 73.3635 9.496C75.1235 9.496 76.7715 9.688 78.3075 10.072C79.8755 10.424 81.2515 11 82.4355 11.8C83.6195 12.568 84.5475 13.56 85.2195 14.776C85.8915 15.96 86.2275 17.384 86.2275 19.048V19.624H80.0355V19.144C80.0355 18.216 79.7475 17.432 79.1715 16.792C78.6275 16.152 77.8435 15.656 76.8195 15.304C75.8275 14.952 74.6595 14.776 73.3155 14.776C71.8755 14.776 70.6435 14.92 69.6195 15.208C68.5955 15.464 67.8115 15.864 67.2675 16.408C66.7235 16.92 66.4515 17.56 66.4515 18.328C66.4515 19.128 66.7395 19.8 67.3155 20.344C67.8915 20.888 68.6595 21.352 69.6195 21.736C70.6115 22.12 71.7155 22.472 72.9315 22.792C74.1795 23.112 75.4435 23.464 76.7235 23.848C78.0355 24.2 79.2995 24.616 80.5155 25.096C81.7635 25.576 82.8675 26.184 83.8275 26.92C84.8195 27.624 85.6035 28.504 86.1795 29.56C86.7555 30.616 87.0435 31.88 87.0435 33.352C87.0435 35.816 86.4355 37.8 85.2195 39.304C84.0355 40.808 82.3875 41.896 80.2755 42.568C78.1955 43.24 75.8115 43.576 73.1235 43.576ZM100.915 43V15.448H90.4031V10.072H117.715V15.448H107.155V43H100.915ZM136.25 43.576C133.37 43.576 130.89 43.112 128.81 42.184C126.73 41.256 125.13 39.848 124.01 37.96C122.922 36.04 122.378 33.656 122.378 30.808V10.072H128.618V30.616C128.618 33.144 129.274 35.064 130.586 36.376C131.93 37.656 133.818 38.296 136.25 38.296C138.682 38.296 140.57 37.656 141.914 36.376C143.29 35.064 143.978 33.144 143.978 30.616V10.072H150.218V30.808C150.218 33.656 149.658 36.04 148.538 37.96C147.418 39.848 145.818 41.256 143.738 42.184C141.658 43.112 139.162 43.576 136.25 43.576ZM157.304 43V10.072H170.504C173.832 10.072 176.68 10.664 179.048 11.848C181.416 13.032 183.24 14.84 184.52 17.272C185.8 19.672 186.44 22.76 186.44 26.536C186.44 30.28 185.8 33.368 184.52 35.8C183.24 38.232 181.416 40.04 179.048 41.224C176.68 42.408 173.832 43 170.504 43H157.304ZM163.544 37.672H170.504C172.04 37.672 173.4 37.448 174.584 37C175.768 36.552 176.76 35.896 177.56 35.032C178.36 34.136 178.968 33.032 179.384 31.72C179.8 30.376 180.008 28.824 180.008 27.064V26.056C180.008 24.264 179.8 22.712 179.384 21.4C178.968 20.056 178.36 18.952 177.56 18.088C176.76 17.192 175.768 16.52 174.584 16.072C173.4 15.624 172.04 15.4 170.504 15.4H163.544V37.672ZM192.226 43V10.072H217.906V15.4H198.466V23.512H215.794V28.84H198.466V37.672H218.194V43H192.226ZM224.476 43V10.072H230.428L244.492 29.512C244.652 29.704 244.844 29.976 245.068 30.328C245.292 30.648 245.5 30.968 245.692 31.288C245.884 31.608 246.012 31.864 246.076 32.056H246.316C246.316 31.608 246.316 31.176 246.316 30.76C246.316 30.344 246.316 29.928 246.316 29.512V10.072H252.316V43H246.412L232.3 23.416C232.044 23.032 231.74 22.568 231.388 22.024C231.068 21.448 230.844 21.048 230.716 20.824H230.476C230.476 21.24 230.476 21.672 230.476 22.12C230.476 22.536 230.476 22.968 230.476 23.416V43H224.476ZM267.696 43V15.448H257.184V10.072H284.496V15.448H273.936V43H267.696ZM18.144 96.576C14.784 96.576 11.904 95.984 9.504 94.8C7.136 93.616 5.312 91.776 4.032 89.28C2.784 86.752 2.16 83.504 2.16 79.536C2.16 73.744 3.568 69.456 6.384 66.672C9.2 63.888 13.12 62.496 18.144 62.496C20.864 62.496 23.312 62.96 25.488 63.888C27.696 64.816 29.44 66.224 30.72 68.112C32.032 69.968 32.688 72.336 32.688 75.216H26.304C26.304 73.616 25.952 72.272 25.248 71.184C24.576 70.064 23.632 69.216 22.416 68.64C21.2 68.064 19.808 67.776 18.24 67.776C16.064 67.776 14.256 68.208 12.816 69.072C11.376 69.904 10.304 71.152 9.6 72.816C8.928 74.48 8.592 76.544 8.592 79.008V80.064C8.592 82.56 8.928 84.64 9.6 86.304C10.304 87.968 11.36 89.216 12.768 90.048C14.208 90.88 16.032 91.296 18.24 91.296C19.904 91.296 21.36 91.024 22.608 90.48C23.856 89.904 24.816 89.072 25.488 87.984C26.192 86.864 26.544 85.504 26.544 83.904H32.688C32.688 86.784 32.048 89.168 30.768 91.056C29.488 92.912 27.744 94.304 25.536 95.232C23.36 96.128 20.896 96.576 18.144 96.576ZM53.3618 96.576C49.9378 96.576 46.9778 95.968 44.4818 94.752C41.9858 93.504 40.0658 91.616 38.7218 89.088C37.4098 86.56 36.7538 83.376 36.7538 79.536C36.7538 75.664 37.4098 72.48 38.7218 69.984C40.0658 67.456 41.9858 65.584 44.4818 64.368C46.9778 63.12 49.9378 62.496 53.3618 62.496C56.8178 62.496 59.7778 63.12 62.2418 64.368C64.7378 65.584 66.6418 67.456 67.9538 69.984C69.2978 72.48 69.9698 75.664 69.9698 79.536C69.9698 83.376 69.2978 86.56 67.9538 89.088C66.6418 91.616 64.7378 93.504 62.2418 94.752C59.7778 95.968 56.8178 96.576 53.3618 96.576ZM53.3618 91.296C55.0258 91.296 56.4818 91.056 57.7298 90.576C59.0098 90.096 60.0818 89.392 60.9458 88.464C61.8098 87.504 62.4658 86.336 62.9138 84.96C63.3618 83.552 63.5858 81.936 63.5858 80.112V79.056C63.5858 77.2 63.3618 75.568 62.9138 74.16C62.4658 72.752 61.8098 71.584 60.9458 70.656C60.0818 69.696 59.0098 68.976 57.7298 68.496C56.4818 68.016 55.0258 67.776 53.3618 67.776C51.6978 67.776 50.2258 68.016 48.9458 68.496C47.6978 68.976 46.6418 69.696 45.7778 70.656C44.9138 71.584 44.2578 72.752 43.8098 74.16C43.3938 75.568 43.1858 77.2 43.1858 79.056V80.112C43.1858 81.936 43.3938 83.552 43.8098 84.96C44.2578 86.336 44.9138 87.504 45.7778 88.464C46.6418 89.392 47.6978 90.096 48.9458 90.576C50.2258 91.056 51.6978 91.296 53.3618 91.296ZM75.7886 96V63.072H82.0286V90.576H98.5406V96H75.7886ZM103.164 96V63.072H109.404V90.576H125.916V96H103.164ZM130.539 96V63.072H156.219V68.4H136.779V76.512H154.107V81.84H136.779V90.672H156.507V96H130.539ZM177.285 96.576C173.925 96.576 171.045 95.984 168.645 94.8C166.277 93.616 164.453 91.776 163.173 89.28C161.925 86.752 161.301 83.504 161.301 79.536C161.301 73.744 162.709 69.456 165.525 66.672C168.341 63.888 172.261 62.496 177.285 62.496C180.005 62.496 182.453 62.96 184.629 63.888C186.837 64.816 188.581 66.224 189.861 68.112C191.173 69.968 191.829 72.336 191.829 75.216H185.445C185.445 73.616 185.093 72.272 184.389 71.184C183.717 70.064 182.773 69.216 181.557 68.64C180.341 68.064 178.949 67.776 177.381 67.776C175.205 67.776 173.397 68.208 171.957 69.072C170.517 69.904 169.445 71.152 168.741 72.816C168.069 74.48 167.733 76.544 167.733 79.008V80.064C167.733 82.56 168.069 84.64 168.741 86.304C169.445 87.968 170.501 89.216 171.909 90.048C173.349 90.88 175.173 91.296 177.381 91.296C179.045 91.296 180.501 91.024 181.749 90.48C182.997 89.904 183.957 89.072 184.629 87.984C185.333 86.864 185.685 85.504 185.685 83.904H191.829C191.829 86.784 191.189 89.168 189.909 91.056C188.629 92.912 186.885 94.304 184.677 95.232C182.501 96.128 180.037 96.576 177.285 96.576ZM204.509 96V68.448H193.997V63.072H221.309V68.448H210.749V96H204.509ZM226.164 96V63.072H232.404V96H226.164ZM248.543 96L236.543 63.072H243.311L251.135 85.728C251.263 86.048 251.391 86.416 251.519 86.832C251.647 87.248 251.775 87.648 251.903 88.032C252.031 88.384 252.143 88.704 252.239 88.992H252.479C252.575 88.736 252.671 88.432 252.767 88.08C252.895 87.728 253.023 87.36 253.151 86.976C253.279 86.56 253.407 86.16 253.535 85.776L261.311 63.072H267.791L255.791 96H248.543ZM271.914 96V63.072H297.594V68.4H278.154V76.512H295.482V81.84H278.154V90.672H297.882V96H271.914Z" fill="white"/>
</svg>
